<?xml version="1.0" encoding="utf-8"?>
<!-- Generator: Adobe Illustrator 26.2.1, SVG Export Plug-In . SVG Version: 6.00 Build 0)  -->
<svg version="1.1" id="Layer_1" xmlns="http://www.w3.org/2000/svg" xmlns:xlink="http://www.w3.org/1999/xlink" x="0px" y="0px"
	 viewBox="0 0 40 40" style="enable-background:new 0 0 40 40;" xml:space="preserve">
<g>
	<g>
		<path d="M33.6,7.3c-2.5-1.2-5.3-2.1-8.1-2.5c-0.3,0.6-0.8,1.5-1,2.2c-3-0.5-6-0.5-9,0c-0.3-0.7-0.7-1.5-1.1-2.2
			c-2.8,0.5-5.6,1.4-8.1,2.6c-5.1,7.8-6.5,15.3-5.8,22.8c3.4,2.5,6.7,4.1,9.9,5.1c0.8-1.1,1.5-2.3,2.1-3.5c-1.2-0.4-2.3-1-3.4-1.6
			c0.3-0.2,0.6-0.4,0.8-0.7c6.5,3,13.5,3,19.9,0c0.3,0.2,0.5,0.4,0.8,0.7c-1.1,0.6-2.2,1.2-3.4,1.6c0.6,1.2,1.3,2.4,2.1,3.5
			c3.2-1,6.5-2.6,9.9-5.1C40.3,21.5,38.1,14,33.6,7.3z M13.5,25.5c-1.9,0-3.5-1.8-3.5-4s1.6-4,3.5-4c2,0,3.6,1.8,3.5,4
			C17,23.7,15.4,25.5,13.5,25.5z M26.5,25.5c-1.9,0-3.5-1.8-3.5-4s1.6-4,3.5-4c2,0,3.6,1.8,3.5,4C30.1,23.7,28.5,25.5,26.5,25.5z"/>
	</g>
</g>
</svg>
