<svg width="40" height="40" viewBox="0 0 40 40" fill="none" xmlns="http://www.w3.org/2000/svg">
<path fill-rule="evenodd" clip-rule="evenodd" d="M12.0063 4L0 15.9432L20 35.8486L40 15.9511L27.9937 4H12.0063ZM11.4465 11.757C16.1686 7.02699 23.8312 7.02699 28.5533 11.757L32.6369 15.8405L28.5533 19.9241C23.8312 24.6541 16.1686 24.6541 11.4465 19.9241L7.36296 15.8405L11.4465 11.757ZM20 20.8472C17.2408 20.8472 15.0019 18.6635 15.0019 15.9753C15.0019 13.2871 17.2408 11.1034 20 11.1034C22.7591 11.1034 24.998 13.2871 24.998 15.9753C24.998 18.6635 22.767 20.8472 20 20.8472ZM19.9998 17.9461C18.8409 17.9461 17.8949 17.0001 17.8949 15.8412C17.8949 14.6745 18.8409 13.7364 19.9998 13.7364C21.1586 13.7364 22.1046 14.6824 22.1046 15.8412C22.1046 17.008 21.1665 17.9461 19.9998 17.9461Z" fill="black"/>
</svg>
