<svg width="46" height="46" viewBox="0 0 46 46" fill="none" xmlns="http://www.w3.org/2000/svg">
<path fill-rule="evenodd" clip-rule="evenodd" d="M13.8073 4.59961L0 18.3343L23 41.2255L46 18.3434L32.1927 4.59961H13.8073ZM13.1635 13.5201C18.5939 8.08064 27.4059 8.08064 32.8363 13.5201L37.5324 18.2162L32.8363 22.9123C27.4059 28.3518 18.5939 28.3518 13.1635 22.9123L8.4674 18.2162L13.1635 13.5201ZM23 23.9739C19.8269 23.9739 17.2522 21.4626 17.2522 18.3712C17.2522 15.2797 19.8269 12.7685 23 12.7685C26.173 12.7685 28.7477 15.2797 28.7477 18.3712C28.7477 21.4626 26.1821 23.9739 23 23.9739ZM22.9997 20.6376C21.6671 20.6376 20.5792 19.5497 20.5792 18.217C20.5792 16.8753 21.6671 15.7964 22.9997 15.7964C24.3324 15.7964 25.4203 16.8843 25.4203 18.217C25.4203 19.5588 24.3415 20.6376 22.9997 20.6376Z" fill="white"/>
</svg>
