<?xml version="1.0" encoding="utf-8"?>
<!-- Generator: Adobe Illustrator 26.2.1, SVG Export Plug-In . SVG Version: 6.00 Build 0)  -->
<svg version="1.1" id="Layer_1" xmlns="http://www.w3.org/2000/svg" xmlns:xlink="http://www.w3.org/1999/xlink" x="0px" y="0px"
	 viewBox="0 0 39 40" style="enable-background:new 0 0 39 40;" xml:space="preserve">
<style type="text/css">
	.st0{fill-rule:evenodd;clip-rule:evenodd;}
</style>
<path class="st0" d="M19.5,39.5C30.3,39.5,39,30.8,39,20C39,9.2,30.3,0.5,19.5,0.5C8.7,0.5,0,9.2,0,20C0,30.8,8.7,39.5,19.5,39.5z
	 M32.2,23.4v-1.3c0-0.1-0.1-0.2-0.2-0.2l-5.9,1.7c0,0-0.1,0-0.1,0.1c-0.6,0.7-1.2,1.2-1.3,1.3l0,0c-0.4,0.3-0.8,0.5-1.3,0.5h-2.1
	v-2.2h1.7c0,0,0.1,0,0.1,0l0.2-0.2c0.1-0.1,0.2-0.2,0.3-0.3l0,0c0.1-0.1,0.1-0.1,0.2-0.2c0.1-0.1,0.2-0.2,0.3-0.3
	c0.1-0.1,0.3-0.3,0.4-0.5c0.1-0.1,0.2-0.2,0.3-0.3c0.1-0.1,0.2-0.2,0.3-0.4c0,0,0.1-0.1,0.1-0.1h0v0c0,0,0.1-0.1,0.1-0.1
	c0.1-0.1,0.1-0.2,0.2-0.3c0.2-0.3,0.3-0.5,0.4-0.8c0.1-0.1,0.1-0.2,0.1-0.4l0,0c0-0.1,0.1-0.3,0.1-0.4c0.1-0.3,0.1-0.7,0.1-1
	c0-0.1,0-0.2,0-0.3v0c0-0.1,0-0.1,0-0.2c-0.1-0.3-0.2-0.6-0.3-1c0-0.1-0.1-0.2-0.2-0.3c-0.1-0.2-0.3-0.5-0.4-0.7
	c0,0-0.1-0.1-0.1-0.1v0c0,0-0.1-0.1-0.1-0.1c-0.1-0.1-0.2-0.3-0.3-0.4l0,0l0,0l-0.1-0.1c-0.1-0.1-0.1-0.2-0.2-0.2
	c0,0-0.1-0.1-0.1-0.1c-0.1-0.1-0.2-0.2-0.3-0.4c-0.4-0.4-0.8-0.8-1.1-1.1c-0.1-0.1-0.1-0.1-0.2-0.2c-0.3-0.2-0.5-0.5-0.7-0.6
	c-0.1,0-0.1-0.1-0.2-0.1c0,0-0.1-0.1-0.1-0.1c-0.1,0-0.1-0.1-0.2-0.1l0,0l0,0l0,0c0,0-0.1,0-0.1-0.1c0,0,0,0-0.1,0l-0.2-0.1V9.4
	c0-0.3-0.1-0.6-0.3-0.8c-0.2-0.2-0.5-0.3-0.8-0.3c-0.6,0-1.1,0.5-1.1,1.1v1.3l-0.1,0l-0.3-0.1l-0.3-0.1c0,0,0,0,0,0l0,0c0,0,0,0,0,0
	h0l-2.1-0.6C16,9.9,16,10,16,10.1l0.3,0.6c0,0,0,0.1,0.1,0.1v0c0,0,0,0.1,0,0.1c0.1,0.1,0.1,0.2,0.2,0.3c0,0.1,0.1,0.2,0.2,0.3
	c0,0.1,0,0.1,0.1,0.2c0.1,0.2,0.2,0.4,0.3,0.6c0.1,0.2,0.2,0.4,0.2,0.6c0.2,0.5,0.4,1,0.5,1.6c0,0.1,0.1,0.2,0.1,0.4
	c0,0.1,0,0.1,0,0.2l0,0.1c0.1,0.3,0.1,0.5,0.2,0.8c0,0.2,0.1,0.3,0.1,0.5c0,0.2,0,0.4,0.1,0.6c0,0.2,0,0.4,0,0.5
	c0,0.4,0,0.9-0.1,1.3l0,0.1l0,0l0,0c0,0.1-0.1,0.2-0.1,0.3c0,0.1-0.1,0.2-0.1,0.3v0l0,0v0c0,0,0,0.1,0,0.1l0,0
	c0,0.1-0.1,0.2-0.1,0.2c-0.2,0.5-0.4,1-0.7,1.4c-0.4,0.7-0.7,1.2-1,1.6c0,0,0,0,0,0.1l0,0c0,0,0,0.1-0.1,0.1c-0.1,0.1,0,0.3,0.1,0.3
	H19v2.2h-2.8c-0.8,0-1.5-0.4-1.8-1.1c-0.2-0.3-0.2-0.7-0.2-1.1c0-0.1-0.1-0.2-0.2-0.2H8.4c-0.1,0-0.2,0.1-0.2,0.2v0.1
	c0,3.6,2.9,6.5,6.5,6.5h10.2c1.9,0,3-1.7,4.1-3.4c0.3-0.5,0.6-0.9,0.9-1.4c0.6-0.8,1.9-1.4,2.3-1.6C32.2,23.5,32.2,23.5,32.2,23.4z
	 M9.7,20.5l-0.1,0.1c-0.1,0.1,0,0.3,0.1,0.3H15c0.1,0,0.1,0,0.1-0.1c0.1-0.1,0.1-0.2,0.2-0.3c0.5-0.8,0.9-1.6,1-2.2
	c0.3-1.5-0.4-3.8-1.2-5.7c-0.1-0.1-0.2-0.1-0.3,0L9.7,20.5z"/>
</svg>
